<svg width="25" height="25" viewBox="0 0 25 25" fill="none" xmlns="http://www.w3.org/2000/svg">
<g clip-path="url(#clip0_11_13)">
<path d="M24.7563 12.7879C24.7563 11.9382 24.6874 11.0839 24.5404 10.248H12.75V15.0615H19.5018C19.2216 16.614 18.3214 17.9873 17.0032 18.86V21.9832H21.0313C23.3967 19.8061 24.7563 16.591 24.7563 12.7879Z" fill="#4285F4"/>
<path d="M12.75 25.0009C16.1213 25.0009 18.9644 23.8939 21.0359 21.9832L17.0078 18.86C15.8871 19.6224 14.4402 20.0541 12.7546 20.0541C9.49352 20.0541 6.7285 17.8541 5.7364 14.8961H1.57968V18.1159C3.70167 22.3369 8.02374 25.0009 12.75 25.0009Z" fill="#34A853"/>
<path d="M5.73181 14.8961C5.2082 13.3437 5.2082 11.6626 5.73181 10.1102V6.89044H1.57969C-0.19323 10.4225 -0.19323 14.5838 1.57969 18.1159L5.73181 14.8961Z" fill="#FBBC04"/>
<path d="M12.75 4.94756C14.5321 4.92 16.2545 5.59059 17.5451 6.82153L21.1139 3.25273C18.8542 1.13073 15.8549 -0.0359021 12.75 0.00084236C8.02374 0.00084236 3.70167 2.66481 1.57968 6.89043L5.7318 10.1102C6.71931 7.14764 9.48892 4.94756 12.75 4.94756Z" fill="#EA4335"/>
</g>
<defs>
<clipPath id="clip0_11_13">
<rect width="25" height="25" fill="white"/>
</clipPath>
</defs>
</svg>
